# xmcd CD database file
#
# Track frame offsets:
#	150
#	15802
#	32164
#	52699
#	69016
#	83891
#	95196
#	109120
#	126088
#	143234
#	159757
#	175043
#	191980
#
# Disc length: 2839 seconds
#
# Revision: 0
# Processed by: cddbd v1.5.2PL0 Copyright (c) Steve Scherf et al.
# Submitted via: CDex 1.51
#
DISCID=9b0b150d
DTITLE=Dr. Bob and Big John - One Take Two Man Band
DYEAR=2006
DGENRE=Blues
TTITLE0=Business Man
TTITLE1=You Don't Love Me
TTITLE2=Cocaine Momma
TTITLE3=It's Gonna Work Out Fine
TTITLE4=Kind Hearted Woman
TTITLE5=Devil With A Blue Dress On
TTITLE6=I'm Coming Home
TTITLE7=Devil I Know
TTITLE8=J Kelly Blues
TTITLE9=Dixie Chicken
TTITLE10=Geronimo's Cadillac
TTITLE11=Something's Broken
TTITLE12=Juke Joint Jump
EXTD=YEAR: 2006
EXTT0=
EXTT1=
EXTT2=
EXTT3=
EXTT4=
EXTT5=
EXTT6=
EXTT7=
EXTT8=
EXTT9=
EXTT10=
EXTT11=
EXTT12=
PLAYORDER=
